<svg width="27" height="28" viewBox="0 0 27 28" fill="none" xmlns="http://www.w3.org/2000/svg">
<path d="M20.709 5.171C20.3886 5.171 20.0754 5.26601 19.809 5.44402C19.5426 5.62203 19.3349 5.87504 19.2123 6.17105C19.0897 6.46707 19.0576 6.7928 19.1201 7.10705C19.1826 7.4213 19.3369 7.70995 19.5635 7.93651C19.79 8.16307 20.0787 8.31736 20.393 8.37987C20.7072 8.44238 21.0329 8.4103 21.3289 8.28768C21.625 8.16507 21.878 7.95743 22.056 7.69102C22.234 7.42462 22.329 7.11141 22.329 6.791C22.329 6.36135 22.1583 5.9493 21.8545 5.64549C21.5507 5.34168 21.1387 5.171 20.709 5.171ZM26.919 8.438C26.8927 7.3179 26.683 6.20969 26.298 5.1575C25.9547 4.25723 25.4205 3.44203 24.732 2.768C24.0635 2.07603 23.2464 1.54514 22.3425 1.2155C21.2931 0.818817 20.1836 0.604233 19.062 0.581C17.631 0.5 17.172 0.5 13.5 0.5C9.828 0.5 9.369 0.5 7.938 0.581C6.81636 0.604233 5.70691 0.818817 4.6575 1.2155C3.75526 1.54848 2.93886 2.07891 2.268 2.768C1.57603 3.43649 1.04514 4.25359 0.7155 5.1575C0.318817 6.20691 0.104233 7.31636 0.0809999 8.438C-7.54371e-08 9.869 0 10.328 0 14C0 17.672 -7.54371e-08 18.131 0.0809999 19.562C0.104233 20.6836 0.318817 21.7931 0.7155 22.8425C1.04514 23.7464 1.57603 24.5635 2.268 25.232C2.93886 25.9211 3.75526 26.4515 4.6575 26.7845C5.70691 27.1812 6.81636 27.3958 7.938 27.419C9.369 27.5 9.828 27.5 13.5 27.5C17.172 27.5 17.631 27.5 19.062 27.419C20.1836 27.3958 21.2931 27.1812 22.3425 26.7845C23.2464 26.4549 24.0635 25.924 24.732 25.232C25.4235 24.5605 25.9583 23.7446 26.298 22.8425C26.683 21.7903 26.8927 20.6821 26.919 19.562C26.919 18.131 27 17.672 27 14C27 10.328 27 9.869 26.919 8.438ZM24.489 19.4C24.4792 20.2569 24.324 21.106 24.03 21.911C23.8144 22.4985 23.4682 23.0294 23.0175 23.4635C22.5796 23.9097 22.0499 24.2552 21.465 24.476C20.66 24.77 19.8109 24.9252 18.954 24.935C17.604 25.0025 17.1045 25.016 13.554 25.016C10.0035 25.016 9.504 25.016 8.154 24.935C7.2642 24.9517 6.3782 24.8146 5.535 24.53C4.97581 24.2979 4.47033 23.9533 4.05 23.5175C3.60192 23.0838 3.26004 22.5525 3.051 21.965C2.72141 21.1485 2.5386 20.2801 2.511 19.4C2.511 18.05 2.43 17.5505 2.43 14C2.43 10.4495 2.43 9.95 2.511 8.6C2.51705 7.72393 2.67698 6.85573 2.9835 6.035C3.22116 5.46518 3.58596 4.95724 4.05 4.55C4.46015 4.08583 4.96704 3.71718 5.535 3.47C6.35789 3.17306 7.2252 3.01786 8.1 3.011C9.45 3.011 9.9495 2.93 13.5 2.93C17.0505 2.93 17.55 2.93 18.9 3.011C19.7569 3.02083 20.606 3.17603 21.411 3.47C22.0245 3.69768 22.5751 4.06784 23.0175 4.55C23.4599 4.96469 23.8056 5.47169 24.03 6.035C24.33 6.85706 24.4853 7.7249 24.489 8.6C24.5565 9.95 24.57 10.4495 24.57 14C24.57 17.5505 24.5565 18.05 24.489 19.4ZM13.5 7.0745C12.1308 7.07717 10.7932 7.48561 9.65608 8.24821C8.51897 9.01082 7.63341 10.0934 7.11131 11.3591C6.5892 12.6248 6.45398 14.0168 6.72272 15.3594C6.99147 16.7019 7.65212 17.9346 8.6212 18.9018C9.59029 19.869 10.8243 20.5273 12.1674 20.7934C13.5104 21.0595 14.9022 20.9216 16.1669 20.397C17.4316 19.8725 18.5124 18.9848 19.2728 17.8462C20.0332 16.7076 20.439 15.3692 20.439 14C20.4408 13.0889 20.2624 12.1864 19.9142 11.3445C19.5659 10.5026 19.0547 9.73779 18.4098 9.09417C17.7649 8.45054 16.9991 7.94077 16.1565 7.59415C15.3139 7.24754 14.4111 7.07094 13.5 7.0745ZM13.5 18.4955C12.6109 18.4955 11.7417 18.2318 11.0024 17.7379C10.2632 17.2439 9.68695 16.5418 9.3467 15.7204C9.00645 14.8989 8.91742 13.995 9.09088 13.123C9.26434 12.2509 9.69249 11.4499 10.3212 10.8212C10.9499 10.1925 11.7509 9.76434 12.623 9.59088C13.495 9.41742 14.3989 9.50645 15.2204 9.8467C16.0418 10.187 16.7439 10.7632 17.2379 11.5024C17.7318 12.2417 17.9955 13.1109 17.9955 14C17.9955 14.5904 17.8792 15.1749 17.6533 15.7204C17.4274 16.2658 17.0962 16.7614 16.6788 17.1788C16.2614 17.5962 15.7658 17.9274 15.2204 18.1533C14.6749 18.3792 14.0904 18.4955 13.5 18.4955Z" fill="white"/>
</svg>
