<svg width="30" height="22" viewBox="0 0 30 22" fill="none" xmlns="http://www.w3.org/2000/svg">
<path d="M29.4933 7.90106C29.5585 5.9579 29.1461 4.02928 28.2945 2.29428C27.7168 1.58237 26.9149 1.10194 26.0287 0.936709C22.3632 0.593956 18.6825 0.453472 15.0025 0.515861C11.3358 0.450641 7.66839 0.586591 4.01577 0.923133C3.29362 1.05851 2.62533 1.40757 2.09243 1.92774C0.906819 3.05452 0.775084 4.98228 0.643349 6.61137C0.452217 9.54042 0.452217 12.4794 0.643349 15.4084C0.68146 16.3254 0.813937 17.2355 1.03855 18.1236C1.19739 18.8092 1.51876 19.4436 1.97387 19.9699C2.51039 20.5176 3.19425 20.8865 3.93672 21.0288C6.77682 21.3901 9.6385 21.5398 12.4995 21.4768C17.1102 21.5447 21.1545 21.4768 25.9365 21.0967C26.6972 20.9631 27.4003 20.5938 27.952 20.0378C28.3208 19.6575 28.5963 19.1921 28.7556 18.6802C29.2267 17.1904 29.4581 15.6312 29.4406 14.0644C29.4933 13.3042 29.4933 8.7156 29.4933 7.90106ZM12.0253 14.879V6.47561L19.824 10.6977C17.6372 11.9466 14.7522 13.3585 12.0253 14.879Z" fill="white"/>
</svg>
