<svg width="35" height="36" viewBox="0 0 35 36" fill="none" xmlns="http://www.w3.org/2000/svg">
<mask id="mask0_22_264" style="mask-type:luminance" maskUnits="userSpaceOnUse" x="0" y="0" width="35" height="36">
<path d="M34.3877 0.862305H0.11232V35.1377H34.3877V0.862305Z" fill="white"/>
</mask>
<g mask="url(#mask0_22_264)">
<path d="M30.371 0.862305H4.12896C1.91063 0.862305 0.11232 2.66062 0.11232 4.87895V31.121C0.11232 33.3394 1.91063 35.1377 4.12896 35.1377H30.371C32.5894 35.1377 34.3877 33.3394 34.3877 31.121V4.87895C34.3877 2.66062 32.5894 0.862305 30.371 0.862305Z" fill="black"/>
<path d="M23.938 7.55664H27.4812L19.7403 16.404L28.8469 28.4432H21.7165L16.1318 21.1415L9.74156 28.4432H6.19624L14.4758 18.98L5.73994 7.55664H13.0513L18.0994 14.2307L23.938 7.55664ZM22.6944 26.3224H24.6578L11.9845 9.56603H9.87759L22.6944 26.3224Z" fill="white"/>
</g>
</svg>
